<svg width="254" height="68" viewBox="0 0 254 68" fill="none" xmlns="http://www.w3.org/2000/svg">
<rect width="4" height="68" fill="black"/>
<rect x="156" width="4" height="68" fill="black"/>
<rect x="182" width="4" height="68" fill="black"/>
<rect x="208" width="4" height="68" fill="black"/>
<rect x="29" width="4" height="68" fill="black"/>
<rect x="71" width="4" height="68" fill="black"/>
<rect x="48" width="4" height="68" fill="black"/>
<rect x="90" width="4" height="68" fill="black"/>
<rect x="95" width="2" height="68" fill="black"/>
<rect x="98" width="2" height="68" fill="black"/>
<rect x="101" width="2" height="68" fill="black"/>
<rect x="104" width="2" height="68" fill="black"/>
<rect x="131" width="2" height="68" fill="black"/>
<rect x="108" width="2" height="68" fill="black"/>
<rect x="135" width="2" height="68" fill="black"/>
<rect x="113" width="2" height="68" fill="black"/>
<rect x="140" width="2" height="68" fill="black"/>
<rect x="147" width="2" height="68" fill="black"/>
<rect x="152" width="2" height="68" fill="black"/>
<rect x="117" width="1" height="68" fill="black"/>
<rect x="144" width="1" height="68" fill="black"/>
<rect x="6" width="2" height="68" fill="black"/>
<rect x="162" width="2" height="68" fill="black"/>
<rect x="188" width="2" height="68" fill="black"/>
<rect x="214" width="2" height="68" fill="black"/>
<rect x="9" width="1" height="68" fill="black"/>
<rect x="165" width="1" height="68" fill="black"/>
<rect x="191" width="1" height="68" fill="black"/>
<rect x="217" width="1" height="68" fill="black"/>
<rect x="13" width="5" height="68" fill="black"/>
<rect x="169" width="5" height="68" fill="black"/>
<rect x="195" width="5" height="68" fill="black"/>
<rect x="221" width="5" height="68" fill="black"/>
<rect x="55" width="5" height="68" fill="black"/>
<rect x="19" width="5" height="68" fill="black"/>
<rect x="175" width="5" height="68" fill="black"/>
<rect x="201" width="5" height="68" fill="black"/>
<rect x="227" width="5" height="68" fill="black"/>
<rect x="237" width="11" height="68" fill="black"/>
<rect x="250" width="4" height="68" fill="black"/>
<rect x="61" width="5" height="68" fill="black"/>
<rect x="38" width="5" height="68" fill="black"/>
<rect x="80" width="5" height="68" fill="black"/>
<rect x="120" width="5" height="68" fill="black"/>
<rect x="25" width="2" height="68" fill="black"/>
<rect x="67" width="2" height="68" fill="black"/>
<rect x="44" width="2" height="68" fill="black"/>
<rect x="86" width="2" height="68" fill="black"/>
<rect x="126" width="2" height="68" fill="black"/>
</svg>
