<svg width="39" height="26" viewBox="0 0 39 26" fill="none" xmlns="http://www.w3.org/2000/svg">
<path d="M14.9172 12.9995C14.916 11.2937 15.2996 9.60981 16.0394 8.0752C16.6852 6.73532 17.5878 5.53976 18.693 4.55638C17.2961 3.58137 15.6768 2.97234 13.9817 2.78905C12.0822 2.58367 10.1636 2.92105 8.44505 3.76289C6.72643 4.60474 5.27688 5.91727 4.2625 7.55098C3.2481 9.18472 2.70996 11.0735 2.70996 13.0015C2.70996 14.9295 3.2481 16.8183 4.2625 18.452C5.27688 20.0857 6.72643 21.3983 8.44505 22.2401C10.1636 23.082 12.0822 23.4193 13.9817 23.214C15.6768 23.0307 17.2961 22.4216 18.693 21.4466C17.5874 20.4629 16.6846 19.2669 16.0387 17.9264C15.2988 16.3909 14.9154 14.7061 14.9172 12.9995ZM14.9172 12.9995L15.4172 13M14.9172 12.9995L15.4172 13M14.9172 12.9995C14.9172 12.9998 14.9172 13.0001 14.9172 13.0004L15.4172 13M14.9172 12.9995L15.4172 13M15.4172 13C15.4154 14.6314 15.782 16.2419 16.4891 17.7094C17.1219 19.0225 18.0125 20.1905 19.1051 21.1433L15.4172 13ZM15.4172 13C15.4159 11.3691 15.7827 9.75924 16.4898 8.2923C17.1225 6.97966 18.0128 5.81223 19.1051 4.8597L15.4172 13Z" stroke="#AEAEB2"/>
<path d="M36.2887 13C36.2886 14.9281 35.7504 16.8171 34.7358 18.4508C33.7212 20.0846 32.2714 21.3971 30.5526 22.2389C28.8338 23.0806 26.915 23.4177 25.0155 23.2121C23.32 23.0285 21.7005 22.419 20.3037 21.4435C21.4086 20.4594 22.311 19.2635 22.9571 17.9235C23.6971 16.3887 24.0815 14.7047 24.0815 12.9985C24.0815 11.2924 23.6971 9.60835 22.9571 8.0735C22.311 6.73348 21.4086 5.53758 20.3037 4.55351C21.7005 3.57799 23.32 2.96854 25.0155 2.78497C26.915 2.57929 28.8338 2.91646 30.5526 3.75817C32.2714 4.59991 33.7212 5.91242 34.7358 7.54618C35.7504 9.17997 36.2886 11.0689 36.2887 12.997V13Z" stroke="#AEAEB2"/>
</svg>
