<svg width="343" height="194" viewBox="0 0 343 194" fill="none" xmlns="http://www.w3.org/2000/svg">
<g filter="url(#filter0_i_262_232)">
<path d="M9.21771 15.1764C9.65612 6.67121 16.6801 0 25.1965 0H317.803C326.32 0 333.344 6.67119 333.782 15.1763L342.133 177.176C342.604 186.324 335.314 194 326.154 194H16.846C7.68588 194 0.395654 186.324 0.867198 177.176L9.21771 15.1764Z" fill="url(#paint0_linear_262_232)"/>
<path d="M9.21771 15.1764C9.65612 6.67121 16.6801 0 25.1965 0H317.803C326.32 0 333.344 6.67119 333.782 15.1763L342.133 177.176C342.604 186.324 335.314 194 326.154 194H16.846C7.68588 194 0.395654 186.324 0.867198 177.176L9.21771 15.1764Z" fill="url(#paint1_linear_262_232)"/>
</g>
<defs>
<filter id="filter0_i_262_232" x="0.845459" y="0" width="341.309" height="194" filterUnits="userSpaceOnUse" color-interpolation-filters="sRGB">
<feFlood flood-opacity="0" result="BackgroundImageFix"/>
<feBlend mode="normal" in="SourceGraphic" in2="BackgroundImageFix" result="shape"/>
<feColorMatrix in="SourceAlpha" type="matrix" values="0 0 0 0 0 0 0 0 0 0 0 0 0 0 0 0 0 0 127 0" result="hardAlpha"/>
<feOffset dy="-2"/>
<feComposite in2="hardAlpha" operator="arithmetic" k2="-1" k3="1"/>
<feColorMatrix type="matrix" values="0 0 0 0 1 0 0 0 0 1 0 0 0 0 1 0 0 0 0.5 0"/>
<feBlend mode="normal" in2="shape" result="effect1_innerShadow_262_232"/>
</filter>
<linearGradient id="paint0_linear_262_232" x1="171.5" y1="0" x2="171.5" y2="194" gradientUnits="userSpaceOnUse">
<stop stop-color="#E4E9EF"/>
<stop offset="1" stop-color="#F2F2F7"/>
<stop offset="1" stop-color="white" stop-opacity="0"/>
</linearGradient>
<linearGradient id="paint1_linear_262_232" x1="171.5" y1="0" x2="171.5" y2="194" gradientUnits="userSpaceOnUse">
<stop stop-color="white" stop-opacity="0.6"/>
<stop offset="1" stop-color="white" stop-opacity="0"/>
</linearGradient>
</defs>
</svg>
