<svg width="327" height="513" viewBox="0 0 327 513" fill="none" xmlns="http://www.w3.org/2000/svg">
<mask id="path-1-inside-1_274_78" fill="white">
<path fill-rule="evenodd" clip-rule="evenodd" d="M0 5.00001C0 2.23859 2.23858 0 5 0H322C324.761 0 327 2.23858 327 5V504.952C327 507.015 324.256 507.727 323.253 505.925L317.247 495.139C316.485 493.769 314.515 493.769 313.753 495.139L305.679 509.64C304.924 510.997 302.977 511.012 302.2 509.667L293.732 495C292.962 493.667 291.038 493.667 290.268 495L281.8 509.667C281.023 511.012 279.076 510.997 278.321 509.64L270.247 495.139C269.485 493.769 267.515 493.769 266.753 495.139L258.747 509.518C257.985 510.887 256.015 510.887 255.253 509.518L247.247 495.139C246.485 493.769 244.515 493.769 243.753 495.139L235.679 509.64C234.924 510.997 232.977 511.012 232.2 509.667L223.732 495C222.962 493.667 221.038 493.667 220.268 495L211.8 509.667C211.023 511.012 209.076 510.997 208.321 509.64L200.247 495.139C199.485 493.769 197.515 493.769 196.753 495.139L188.747 509.518C187.985 510.887 186.015 510.887 185.253 509.518L177.247 495.139C176.485 493.769 174.515 493.769 173.753 495.139L163.959 512.73C163.866 512.897 163.691 513 163.5 513C163.309 513 163.134 512.897 163.041 512.73L153.247 495.139C152.485 493.769 150.515 493.769 149.753 495.139L141.747 509.518C140.985 510.887 139.015 510.887 138.253 509.518L130.247 495.139C129.485 493.769 127.515 493.769 126.753 495.139L118.679 509.64C117.924 510.997 115.977 511.012 115.2 509.667L106.732 495C105.962 493.667 104.038 493.667 103.268 495L94.8001 509.667C94.0233 511.012 92.0762 510.997 91.3206 509.64L83.2474 495.139C82.485 493.769 80.515 493.769 79.7526 495.139L71.7474 509.518C70.985 510.887 69.015 510.887 68.2526 509.518L60.2474 495.139C59.485 493.769 57.515 493.769 56.7526 495.139L48.6794 509.64C47.9238 510.997 45.9767 511.012 45.2 509.667L36.7321 495C35.9622 493.667 34.0378 493.667 33.2679 495L24.8 509.667C24.0233 511.012 22.0762 510.997 21.3206 509.64L13.2474 495.139C12.485 493.769 10.515 493.769 9.75256 495.139L3.74744 505.925C2.74405 507.727 0 507.015 0 504.952V5.00001Z"/>
</mask>
<path fill-rule="evenodd" clip-rule="evenodd" d="M0 5.00001C0 2.23859 2.23858 0 5 0H322C324.761 0 327 2.23858 327 5V504.952C327 507.015 324.256 507.727 323.253 505.925L317.247 495.139C316.485 493.769 314.515 493.769 313.753 495.139L305.679 509.64C304.924 510.997 302.977 511.012 302.2 509.667L293.732 495C292.962 493.667 291.038 493.667 290.268 495L281.8 509.667C281.023 511.012 279.076 510.997 278.321 509.64L270.247 495.139C269.485 493.769 267.515 493.769 266.753 495.139L258.747 509.518C257.985 510.887 256.015 510.887 255.253 509.518L247.247 495.139C246.485 493.769 244.515 493.769 243.753 495.139L235.679 509.64C234.924 510.997 232.977 511.012 232.2 509.667L223.732 495C222.962 493.667 221.038 493.667 220.268 495L211.8 509.667C211.023 511.012 209.076 510.997 208.321 509.64L200.247 495.139C199.485 493.769 197.515 493.769 196.753 495.139L188.747 509.518C187.985 510.887 186.015 510.887 185.253 509.518L177.247 495.139C176.485 493.769 174.515 493.769 173.753 495.139L163.959 512.73C163.866 512.897 163.691 513 163.5 513C163.309 513 163.134 512.897 163.041 512.73L153.247 495.139C152.485 493.769 150.515 493.769 149.753 495.139L141.747 509.518C140.985 510.887 139.015 510.887 138.253 509.518L130.247 495.139C129.485 493.769 127.515 493.769 126.753 495.139L118.679 509.64C117.924 510.997 115.977 511.012 115.2 509.667L106.732 495C105.962 493.667 104.038 493.667 103.268 495L94.8001 509.667C94.0233 511.012 92.0762 510.997 91.3206 509.64L83.2474 495.139C82.485 493.769 80.515 493.769 79.7526 495.139L71.7474 509.518C70.985 510.887 69.015 510.887 68.2526 509.518L60.2474 495.139C59.485 493.769 57.515 493.769 56.7526 495.139L48.6794 509.64C47.9238 510.997 45.9767 511.012 45.2 509.667L36.7321 495C35.9622 493.667 34.0378 493.667 33.2679 495L24.8 509.667C24.0233 511.012 22.0762 510.997 21.3206 509.64L13.2474 495.139C12.485 493.769 10.515 493.769 9.75256 495.139L3.74744 505.925C2.74405 507.727 0 507.015 0 504.952V5.00001Z" fill="white"/>
<path d="M13.2474 495.139L12.3737 495.625L13.2474 495.139ZM9.75256 495.139L8.87884 494.652L9.75256 495.139ZM24.8 509.667L23.934 509.167L24.8 509.667ZM21.3206 509.64L20.4468 510.126L21.3206 509.64ZM36.7321 495L37.5981 494.5L36.7321 495ZM33.2679 495L32.4019 494.5L33.2679 495ZM48.6794 509.64L49.5532 510.126L48.6794 509.64ZM45.2 509.667L44.3339 510.167L45.2 509.667ZM60.2474 495.139L59.3737 495.625L60.2474 495.139ZM56.7526 495.139L57.6263 495.625L56.7526 495.139ZM71.7474 509.518L70.8737 509.031L71.7474 509.518ZM68.2526 509.518L67.3788 510.004L68.2526 509.518ZM83.2474 495.139L84.1212 494.652L83.2474 495.139ZM79.7526 495.139L78.8788 494.652L79.7526 495.139ZM94.8001 509.667L93.934 509.167L94.8001 509.667ZM91.3206 509.64L92.1943 509.153L91.3206 509.64ZM106.732 495L105.866 495.5L106.732 495ZM103.268 495L104.134 495.5L103.268 495ZM118.679 509.64L117.806 509.153L118.679 509.64ZM115.2 509.667L116.066 509.167L115.2 509.667ZM130.247 495.139L131.121 494.652L130.247 495.139ZM126.753 495.139L125.879 494.652L126.753 495.139ZM138.253 509.518L139.126 509.031L138.253 509.518ZM153.247 495.139L154.121 494.652L153.247 495.139ZM149.753 495.139L150.626 495.625L149.753 495.139ZM163.041 512.73L162.167 513.217L163.041 512.73ZM163.959 512.73L164.833 513.217L163.959 512.73ZM177.247 495.139L176.374 495.625L177.247 495.139ZM173.753 495.139L172.879 494.652L173.753 495.139ZM185.253 509.518L186.126 509.031L185.253 509.518ZM200.247 495.139L199.374 495.625L200.247 495.139ZM196.753 495.139L197.626 495.625L196.753 495.139ZM211.8 509.667L210.934 509.167L211.8 509.667ZM208.321 509.64L209.194 509.153L208.321 509.64ZM223.732 495L224.598 494.5L223.732 495ZM220.268 495L219.402 494.5L220.268 495ZM235.679 509.64L234.806 509.153L235.679 509.64ZM232.2 509.667L231.334 510.167L232.2 509.667ZM247.247 495.139L246.374 495.625L247.247 495.139ZM243.753 495.139L244.626 495.625L243.753 495.139ZM258.747 509.518L257.874 509.031L258.747 509.518ZM255.253 509.518L256.126 509.031L255.253 509.518ZM270.247 495.139L271.121 494.652L270.247 495.139ZM266.753 495.139L267.626 495.625L266.753 495.139ZM281.8 509.667L280.934 509.167L281.8 509.667ZM293.732 495L292.866 495.5L293.732 495ZM290.268 495L291.134 495.5L290.268 495ZM302.2 509.667L303.066 509.167L302.2 509.667ZM317.247 495.139L316.374 495.625L317.247 495.139ZM313.753 495.139L312.879 494.652L313.753 495.139ZM323.253 505.925L324.126 505.439L323.253 505.925ZM5 -1C1.68629 -1 -1 1.68631 -1 5.00001H1C1 2.79087 2.79086 1 5 1V-1ZM322 -1H5V1H322V-1ZM328 5C328 1.68629 325.314 -1 322 -1V1C324.209 1 326 2.79086 326 5H328ZM328 504.952V5H326V504.952H328ZM316.374 495.625L322.379 506.412L324.126 505.439L318.121 494.652L316.374 495.625ZM306.553 510.126L314.626 495.625L312.879 494.652L304.806 509.153L306.553 510.126ZM292.866 495.5L301.334 510.167L303.066 509.167L294.598 494.5L292.866 495.5ZM282.666 510.167L291.134 495.5L289.402 494.5L280.934 509.167L282.666 510.167ZM279.194 509.153L271.121 494.652L269.374 495.625L277.447 510.126L279.194 509.153ZM265.879 494.652L257.874 509.031L259.621 510.004L267.626 495.625L265.879 494.652ZM246.374 495.625L254.379 510.004L256.126 509.031L248.121 494.652L246.374 495.625ZM236.553 510.126L244.626 495.625L242.879 494.652L234.806 509.153L236.553 510.126ZM222.866 495.5L231.334 510.167L233.066 509.167L224.598 494.5L222.866 495.5ZM212.666 510.167L221.134 495.5L219.402 494.5L210.934 509.167L212.666 510.167ZM199.374 495.625L207.447 510.126L209.194 509.153L201.121 494.652L199.374 495.625ZM189.621 510.004L197.626 495.625L195.879 494.652L187.874 509.031L189.621 510.004ZM176.374 495.625L184.379 510.004L186.126 509.031L178.121 494.652L176.374 495.625ZM164.833 513.217L174.626 495.625L172.879 494.652L163.085 512.244L164.833 513.217ZM152.374 495.625L162.167 513.217L163.915 512.244L154.121 494.652L152.374 495.625ZM142.621 510.004L150.626 495.625L148.879 494.652L140.874 509.031L142.621 510.004ZM129.374 495.625L137.379 510.004L139.126 509.031L131.121 494.652L129.374 495.625ZM119.553 510.126L127.626 495.625L125.879 494.652L117.806 509.153L119.553 510.126ZM105.866 495.5L114.334 510.167L116.066 509.167L107.598 494.5L105.866 495.5ZM95.6661 510.167L104.134 495.5L102.402 494.5L93.934 509.167L95.6661 510.167ZM82.3737 495.625L90.4468 510.126L92.1943 509.153L84.1212 494.652L82.3737 495.625ZM72.6212 510.004L80.6263 495.625L78.8788 494.652L70.8737 509.031L72.6212 510.004ZM59.3737 495.625L67.3788 510.004L69.1263 509.031L61.1212 494.652L59.3737 495.625ZM49.5532 510.126L57.6263 495.625L55.8788 494.652L47.8057 509.153L49.5532 510.126ZM35.866 495.5L44.3339 510.167L46.066 509.167L37.5981 494.5L35.866 495.5ZM25.6661 510.167L34.134 495.5L32.4019 494.5L23.934 509.167L25.6661 510.167ZM12.3737 495.625L20.4468 510.126L22.1943 509.153L14.1212 494.652L12.3737 495.625ZM4.62116 506.412L10.6263 495.625L8.87884 494.652L2.87372 505.439L4.62116 506.412ZM-1 5.00001V504.952H1V5.00001H-1ZM2.87372 505.439C2.37202 506.34 1 505.984 1 504.952H-1C-1 508.046 3.11608 509.115 4.62116 506.412L2.87372 505.439ZM14.1212 494.652C12.9775 492.598 10.0225 492.598 8.87884 494.652L10.6263 495.625C11.0075 494.94 11.9925 494.94 12.3737 495.625L14.1212 494.652ZM23.934 509.167C23.5456 509.84 22.5721 509.832 22.1943 509.153L20.4468 510.126C21.5803 512.162 24.5009 512.185 25.6661 510.167L23.934 509.167ZM37.5981 494.5C36.4434 492.5 33.5566 492.5 32.4019 494.5L34.134 495.5C34.5189 494.833 35.4811 494.833 35.866 495.5L37.5981 494.5ZM47.8057 509.153C47.4279 509.832 46.4544 509.84 46.066 509.167L44.3339 510.167C45.4991 512.185 48.4197 512.162 49.5532 510.126L47.8057 509.153ZM61.1212 494.652C59.9775 492.598 57.0225 492.598 55.8788 494.652L57.6263 495.625C58.0075 494.94 58.9925 494.94 59.3737 495.625L61.1212 494.652ZM70.8737 509.031C70.4925 509.716 69.5075 509.716 69.1263 509.031L67.3788 510.004C68.5225 512.058 71.4775 512.058 72.6212 510.004L70.8737 509.031ZM84.1212 494.652C82.9775 492.598 80.0225 492.598 78.8788 494.652L80.6263 495.625C81.0075 494.94 81.9925 494.94 82.3737 495.625L84.1212 494.652ZM93.934 509.167C93.5457 509.84 92.5721 509.832 92.1943 509.153L90.4468 510.126C91.5803 512.162 94.501 512.185 95.6661 510.167L93.934 509.167ZM107.598 494.5C106.443 492.5 103.557 492.5 102.402 494.5L104.134 495.5C104.519 494.833 105.481 494.833 105.866 495.5L107.598 494.5ZM117.806 509.153C117.428 509.832 116.454 509.84 116.066 509.167L114.334 510.167C115.499 512.185 118.42 512.162 119.553 510.126L117.806 509.153ZM131.121 494.652C129.977 492.598 127.023 492.598 125.879 494.652L127.626 495.625C128.008 494.94 128.992 494.94 129.374 495.625L131.121 494.652ZM140.874 509.031C140.492 509.716 139.508 509.716 139.126 509.031L137.379 510.004C138.523 512.058 141.477 512.058 142.621 510.004L140.874 509.031ZM154.121 494.652C152.977 492.598 150.023 492.598 148.879 494.652L150.626 495.625C151.008 494.94 151.992 494.94 152.374 495.625L154.121 494.652ZM163.5 512C163.672 512 163.831 512.093 163.915 512.244L162.167 513.217C162.437 513.7 162.947 514 163.5 514V512ZM163.085 512.244C163.169 512.093 163.328 512 163.5 512V514C164.053 514 164.563 513.7 164.833 513.217L163.085 512.244ZM178.121 494.652C176.977 492.598 174.023 492.598 172.879 494.652L174.626 495.625C175.008 494.94 175.992 494.94 176.374 495.625L178.121 494.652ZM187.874 509.031C187.492 509.716 186.508 509.716 186.126 509.031L184.379 510.004C185.523 512.058 188.477 512.058 189.621 510.004L187.874 509.031ZM201.121 494.652C199.977 492.598 197.023 492.598 195.879 494.652L197.626 495.625C198.008 494.94 198.992 494.94 199.374 495.625L201.121 494.652ZM210.934 509.167C210.546 509.84 209.572 509.832 209.194 509.153L207.447 510.126C208.58 512.162 211.501 512.185 212.666 510.167L210.934 509.167ZM224.598 494.5C223.443 492.5 220.557 492.5 219.402 494.5L221.134 495.5C221.519 494.833 222.481 494.833 222.866 495.5L224.598 494.5ZM234.806 509.153C234.428 509.832 233.454 509.84 233.066 509.167L231.334 510.167C232.499 512.185 235.42 512.162 236.553 510.126L234.806 509.153ZM248.121 494.652C246.977 492.598 244.023 492.598 242.879 494.652L244.626 495.625C245.008 494.94 245.992 494.94 246.374 495.625L248.121 494.652ZM257.874 509.031C257.492 509.716 256.508 509.716 256.126 509.031L254.379 510.004C255.523 512.058 258.477 512.058 259.621 510.004L257.874 509.031ZM271.121 494.652C269.977 492.598 267.023 492.598 265.879 494.652L267.626 495.625C268.008 494.94 268.992 494.94 269.374 495.625L271.121 494.652ZM280.934 509.167C280.546 509.84 279.572 509.832 279.194 509.153L277.447 510.126C278.58 512.162 281.501 512.185 282.666 510.167L280.934 509.167ZM294.598 494.5C293.443 492.5 290.557 492.5 289.402 494.5L291.134 495.5C291.519 494.833 292.481 494.833 292.866 495.5L294.598 494.5ZM304.806 509.153C304.428 509.832 303.454 509.84 303.066 509.167L301.334 510.167C302.499 512.185 305.42 512.162 306.553 510.126L304.806 509.153ZM318.121 494.652C316.977 492.598 314.023 492.598 312.879 494.652L314.626 495.625C315.008 494.94 315.992 494.94 316.374 495.625L318.121 494.652ZM326 504.952C326 505.984 324.628 506.34 324.126 505.439L322.379 506.412C323.884 509.115 328 508.046 328 504.952H326Z" fill="#E5E5EA" mask="url(#path-1-inside-1_274_78)"/>
</svg>
